{
	"asset":{
		"generator":"Khronos glTF Blender I/O v3.6.28",
		"version":"2.0"
	},
	"scene":0,
	"scenes":[
		{
			"name":"Scene",
			"nodes":[
				0,
				1
			]
		}
	],
	"nodes":[
		{
			"mesh":0,
			"name":"School_2x3"
		},
		{
			"mesh":1,
			"name":"GStore_1x1"
		}
	],
	"materials":[
		{
			"doubleSided":true,
			"name":"School",
			"pbrMetallicRoughness":{
				"baseColorFactor":[
					0,
					0.2694823145866394,
					0.8000000715255737,
					1
				],
				"metallicFactor":0,
				"roughnessFactor":0.5
			}
		},
		{
			"doubleSided":true,
			"name":"Base",
			"pbrMetallicRoughness":{
				"baseColorFactor":[
					0.800000011920929,
					0.800000011920929,
					0.800000011920929,
					1
				],
				"metallicFactor":0,
				"roughnessFactor":0.5
			}
		},
		{
			"doubleSided":true,
			"name":"GStory",
			"pbrMetallicRoughness":{
				"baseColorFactor":[
					0.8000000715255737,
					0,
					0.749228835105896,
					1
				],
				"metallicFactor":0,
				"roughnessFactor":0.5
			}
		}
	],
	"meshes":[
		{
			"name":"School_2x3",
			"primitives":[
				{
					"attributes":{
						"POSITION":0,
						"NORMAL":1
					},
					"indices":2,
					"material":0
				},
				{
					"attributes":{
						"POSITION":3,
						"NORMAL":4
					},
					"indices":5,
					"material":1
				}
			]
		},
		{
			"name":"GStore_1x1",
			"primitives":[
				{
					"attributes":{
						"POSITION":6,
						"NORMAL":7
					},
					"indices":8,
					"material":2
				},
				{
					"attributes":{
						"POSITION":9,
						"NORMAL":10
					},
					"indices":11,
					"material":1
				}
			]
		}
	],
	"accessors":[
		{
			"bufferView":0,
			"componentType":5126,
			"count":312,
			"max":[
				0.8130476474761963,
				1.2417963743209839,
				1.3130476474761963
			],
			"min":[
				-0.8130476474761963,
				0.043321818113327026,
				-1.3130476474761963
			],
			"type":"VEC3"
		},
		{
			"bufferView":1,
			"componentType":5126,
			"count":312,
			"type":"VEC3"
		},
		{
			"bufferView":2,
			"componentType":5123,
			"count":852,
			"type":"SCALAR"
		},
		{
			"bufferView":3,
			"componentType":5126,
			"count":48,
			"max":[
				1,
				0.04999999701976776,
				1.5
			],
			"min":[
				-1,
				0,
				-1.5
			],
			"type":"VEC3"
		},
		{
			"bufferView":4,
			"componentType":5126,
			"count":48,
			"type":"VEC3"
		},
		{
			"bufferView":5,
			"componentType":5123,
			"count":132,
			"type":"SCALAR"
		},
		{
			"bufferView":6,
			"componentType":5126,
			"count":52,
			"max":[
				0.40706008672714233,
				0.40626227855682373,
				0.40706008672714233
			],
			"min":[
				-0.40706008672714233,
				0.043321818113327026,
				-0.4173581600189209
			],
			"type":"VEC3"
		},
		{
			"bufferView":7,
			"componentType":5126,
			"count":52,
			"type":"VEC3"
		},
		{
			"bufferView":8,
			"componentType":5123,
			"count":138,
			"type":"SCALAR"
		},
		{
			"bufferView":9,
			"componentType":5126,
			"count":48,
			"max":[
				0.5,
				0.04999999701976776,
				0.5
			],
			"min":[
				-0.5,
				0,
				-0.5
			],
			"type":"VEC3"
		},
		{
			"bufferView":10,
			"componentType":5126,
			"count":48,
			"type":"VEC3"
		},
		{
			"bufferView":11,
			"componentType":5123,
			"count":132,
			"type":"SCALAR"
		}
	],
	"bufferViews":[
		{
			"buffer":0,
			"byteLength":3744,
			"byteOffset":0,
			"target":34962
		},
		{
			"buffer":0,
			"byteLength":3744,
			"byteOffset":3744,
			"target":34962
		},
		{
			"buffer":0,
			"byteLength":1704,
			"byteOffset":7488,
			"target":34963
		},
		{
			"buffer":0,
			"byteLength":576,
			"byteOffset":9192,
			"target":34962
		},
		{
			"buffer":0,
			"byteLength":576,
			"byteOffset":9768,
			"target":34962
		},
		{
			"buffer":0,
			"byteLength":264,
			"byteOffset":10344,
			"target":34963
		},
		{
			"buffer":0,
			"byteLength":624,
			"byteOffset":10608,
			"target":34962
		},
		{
			"buffer":0,
			"byteLength":624,
			"byteOffset":11232,
			"target":34962
		},
		{
			"buffer":0,
			"byteLength":276,
			"byteOffset":11856,
			"target":34963
		},
		{
			"buffer":0,
			"byteLength":576,
			"byteOffset":12132,
			"target":34962
		},
		{
			"buffer":0,
			"byteLength":576,
			"byteOffset":12708,
			"target":34962
		},
		{
			"buffer":0,
			"byteLength":264,
			"byteOffset":13284,
			"target":34963
		}
	],
	"buffers":[
		{
			"byteLength":13548,
			"uri":"data:application/octet-stream;base64,"
		}
	]
}
