{
	"asset":{
		"generator":"Khronos glTF Blender I/O v3.6.28",
		"version":"2.0"
	},
	"scene":0,
	"scenes":[
		{
			"name":"Scene",
			"nodes":[
				0,
				1,
				2,
				3,
				4,
				5,
				6,
				7,
				8,
				9
			]
		}
	],
	"nodes":[
		{
			"mesh":0,
			"name":"School_2x3"
		},
		{
			"mesh":1,
			"name":"GStore_1x1"
		},
		{
			"mesh":2,
			"name":"APlex_1x1"
		},
		{
			"mesh":3,
			"name":"ABloc_1x1"
		},
		{
			"mesh":4,
			"name":"Park_1x1"
		},
		{
			"mesh":5,
			"name":"Park_1x2"
		},
		{
			"mesh":6,
			"name":"Work_1x1"
		},
		{
			"mesh":7,
			"name":"BStore_1x1"
		},
		{
			"mesh":8,
			"name":"SCenter_1x2"
		},
		{
			"mesh":9,
			"name":"RStore_1x2"
		}
	],
	"materials":[
		{
			"doubleSided":true,
			"name":"School",
			"pbrMetallicRoughness":{
				"baseColorFactor":[
					0,
					0.2694823145866394,
					0.8000000715255737,
					1
				],
				"metallicFactor":0,
				"roughnessFactor":0.5
			}
		},
		{
			"doubleSided":true,
			"name":"Base",
			"pbrMetallicRoughness":{
				"baseColorFactor":[
					0.800000011920929,
					0.800000011920929,
					0.800000011920929,
					1
				],
				"metallicFactor":0,
				"roughnessFactor":0.5
			}
		},
		{
			"doubleSided":true,
			"name":"GStore",
			"pbrMetallicRoughness":{
				"baseColorFactor":[
					0.21454313397407532,
					0,
					0.8000000715255737,
					1
				],
				"metallicFactor":0,
				"roughnessFactor":0.5
			}
		},
		{
			"doubleSided":true,
			"name":"App",
			"pbrMetallicRoughness":{
				"baseColorFactor":[
					0.22857153415679932,
					0.22857153415679932,
					0.22857153415679932,
					1
				],
				"metallicFactor":0,
				"roughnessFactor":0.5
			}
		},
		{
			"doubleSided":true,
			"name":"Park",
			"pbrMetallicRoughness":{
				"baseColorFactor":[
					0.020984593778848648,
					0.8000000715255737,
					0,
					1
				],
				"metallicFactor":0,
				"roughnessFactor":0.5
			}
		},
		{
			"doubleSided":true,
			"name":"Work",
			"pbrMetallicRoughness":{
				"baseColorFactor":[
					0.06372037529945374,
					0.06372037529945374,
					0.06372037529945374,
					1
				],
				"metallicFactor":0,
				"roughnessFactor":0.5
			}
		},
		{
			"doubleSided":true,
			"name":"BStore",
			"pbrMetallicRoughness":{
				"baseColorFactor":[
					0.8000000715255737,
					0,
					0.20330728590488434,
					1
				],
				"metallicFactor":0,
				"roughnessFactor":0.5
			}
		},
		{
			"doubleSided":true,
			"name":"SCenter",
			"pbrMetallicRoughness":{
				"baseColorFactor":[
					0.8000000715255737,
					0.693156898021698,
					0,
					1
				],
				"metallicFactor":0,
				"roughnessFactor":0.5
			}
		},
		{
			"doubleSided":true,
			"name":"RStore",
			"pbrMetallicRoughness":{
				"baseColorFactor":[
					0.8000000715255737,
					0.12485776841640472,
					0,
					1
				],
				"metallicFactor":0,
				"roughnessFactor":0.5
			}
		}
	],
	"meshes":[
		{
			"name":"School_2x3",
			"primitives":[
				{
					"attributes":{
						"POSITION":0,
						"NORMAL":1
					},
					"indices":2,
					"material":0
				},
				{
					"attributes":{
						"POSITION":3,
						"NORMAL":4
					},
					"indices":5,
					"material":1
				}
			]
		},
		{
			"name":"GStore_1x1",
			"primitives":[
				{
					"attributes":{
						"POSITION":6,
						"NORMAL":7
					},
					"indices":8,
					"material":2
				},
				{
					"attributes":{
						"POSITION":9,
						"NORMAL":10
					},
					"indices":11,
					"material":1
				}
			]
		},
		{
			"name":"APlex_1x1",
			"primitives":[
				{
					"attributes":{
						"POSITION":12,
						"NORMAL":13
					},
					"indices":14,
					"material":3
				},
				{
					"attributes":{
						"POSITION":15,
						"NORMAL":16
					},
					"indices":17,
					"material":1
				}
			]
		},
		{
			"name":"ABloc_1x1",
			"primitives":[
				{
					"attributes":{
						"POSITION":18,
						"NORMAL":19
					},
					"indices":14,
					"material":3
				},
				{
					"attributes":{
						"POSITION":20,
						"NORMAL":21
					},
					"indices":17,
					"material":1
				}
			]
		},
		{
			"name":"Park_1x1",
			"primitives":[
				{
					"attributes":{
						"POSITION":22,
						"NORMAL":23
					},
					"indices":24,
					"material":4
				},
				{
					"attributes":{
						"POSITION":25,
						"NORMAL":26
					},
					"indices":27,
					"material":1
				}
			]
		},
		{
			"name":"Park_1x2",
			"primitives":[
				{
					"attributes":{
						"POSITION":28,
						"NORMAL":29
					},
					"indices":30,
					"material":4
				},
				{
					"attributes":{
						"POSITION":31,
						"NORMAL":32
					},
					"indices":33,
					"material":1
				}
			]
		},
		{
			"name":"Work_1x1",
			"primitives":[
				{
					"attributes":{
						"POSITION":34,
						"NORMAL":35
					},
					"indices":36,
					"material":5
				},
				{
					"attributes":{
						"POSITION":37,
						"NORMAL":38
					},
					"indices":39,
					"material":1
				}
			]
		},
		{
			"name":"GStore_1x1.001",
			"primitives":[
				{
					"attributes":{
						"POSITION":40,
						"NORMAL":41
					},
					"indices":8,
					"material":6
				},
				{
					"attributes":{
						"POSITION":42,
						"NORMAL":43
					},
					"indices":11,
					"material":1
				}
			]
		},
		{
			"name":"GStore_1x1.002",
			"primitives":[
				{
					"attributes":{
						"POSITION":44,
						"NORMAL":45
					},
					"indices":46,
					"material":7
				},
				{
					"attributes":{
						"POSITION":47,
						"NORMAL":48
					},
					"indices":49,
					"material":1
				}
			]
		},
		{
			"name":"GStore_1x1.003",
			"primitives":[
				{
					"attributes":{
						"POSITION":50,
						"NORMAL":51
					},
					"indices":52,
					"material":8
				},
				{
					"attributes":{
						"POSITION":53,
						"NORMAL":54
					},
					"indices":49,
					"material":1
				}
			]
		}
	],
	"accessors":[
		{
			"bufferView":0,
			"componentType":5126,
			"count":312,
			"max":[
				1.8130476474761963,
				1.2417963743209839,
				-0.1869523525238037
			],
			"min":[
				0.1869523525238037,
				0.043321818113327026,
				-2.8130476474761963
			],
			"type":"VEC3"
		},
		{
			"bufferView":1,
			"componentType":5126,
			"count":312,
			"type":"VEC3"
		},
		{
			"bufferView":2,
			"componentType":5123,
			"count":852,
			"type":"SCALAR"
		},
		{
			"bufferView":3,
			"componentType":5126,
			"count":48,
			"max":[
				2,
				0.04999999701976776,
				0
			],
			"min":[
				0,
				0,
				-3
			],
			"type":"VEC3"
		},
		{
			"bufferView":4,
			"componentType":5126,
			"count":48,
			"type":"VEC3"
		},
		{
			"bufferView":5,
			"componentType":5123,
			"count":132,
			"type":"SCALAR"
		},
		{
			"bufferView":6,
			"componentType":5126,
			"count":52,
			"max":[
				0.9070600867271423,
				0.40626227855682373,
				-0.09293991327285767
			],
			"min":[
				0.09293991327285767,
				0.043321818113327026,
				-0.9173581600189209
			],
			"type":"VEC3"
		},
		{
			"bufferView":7,
			"componentType":5126,
			"count":52,
			"type":"VEC3"
		},
		{
			"bufferView":8,
			"componentType":5123,
			"count":138,
			"type":"SCALAR"
		},
		{
			"bufferView":9,
			"componentType":5126,
			"count":48,
			"max":[
				1,
				0.04999999701976776,
				0
			],
			"min":[
				0,
				0,
				-1
			],
			"type":"VEC3"
		},
		{
			"bufferView":10,
			"componentType":5126,
			"count":48,
			"type":"VEC3"
		},
		{
			"bufferView":11,
			"componentType":5123,
			"count":132,
			"type":"SCALAR"
		},
		{
			"bufferView":12,
			"componentType":5126,
			"count":88,
			"max":[
				0.9070600867271423,
				0.4507540762424469,
				-0.09293991327285767
			],
			"min":[
				0.09293991327285767,
				0.043321818113327026,
				-0.9173581600189209
			],
			"type":"VEC3"
		},
		{
			"bufferView":13,
			"componentType":5126,
			"count":88,
			"type":"VEC3"
		},
		{
			"bufferView":14,
			"componentType":5123,
			"count":240,
			"type":"SCALAR"
		},
		{
			"bufferView":15,
			"componentType":5126,
			"count":48,
			"max":[
				1,
				0.04999999701976776,
				0
			],
			"min":[
				0,
				0,
				-1
			],
			"type":"VEC3"
		},
		{
			"bufferView":16,
			"componentType":5126,
			"count":48,
			"type":"VEC3"
		},
		{
			"bufferView":17,
			"componentType":5123,
			"count":132,
			"type":"SCALAR"
		},
		{
			"bufferView":18,
			"componentType":5126,
			"count":88,
			"max":[
				0.9070600867271423,
				1.1821080446243286,
				-0.09293991327285767
			],
			"min":[
				0.09293991327285767,
				0.043321818113327026,
				-0.9173581600189209
			],
			"type":"VEC3"
		},
		{
			"bufferView":19,
			"componentType":5126,
			"count":88,
			"type":"VEC3"
		},
		{
			"bufferView":20,
			"componentType":5126,
			"count":48,
			"max":[
				1,
				0.04999999701976776,
				0
			],
			"min":[
				0,
				0,
				-1
			],
			"type":"VEC3"
		},
		{
			"bufferView":21,
			"componentType":5126,
			"count":48,
			"type":"VEC3"
		},
		{
			"bufferView":22,
			"componentType":5126,
			"count":714,
			"max":[
				0.9355324506759644,
				0.2922876477241516,
				-0.07197365164756775
			],
			"min":[
				0.06810799241065979,
				0.04233817011117935,
				-0.9451965093612671
			],
			"type":"VEC3"
		},
		{
			"bufferView":23,
			"componentType":5126,
			"count":714,
			"type":"VEC3"
		},
		{
			"bufferView":24,
			"componentType":5123,
			"count":2274,
			"type":"SCALAR"
		},
		{
			"bufferView":25,
			"componentType":5126,
			"count":56,
			"max":[
				1,
				0.04999999701976776,
				0
			],
			"min":[
				0,
				0,
				-1
			],
			"type":"VEC3"
		},
		{
			"bufferView":26,
			"componentType":5126,
			"count":56,
			"type":"VEC3"
		},
		{
			"bufferView":27,
			"componentType":5123,
			"count":174,
			"type":"SCALAR"
		},
		{
			"bufferView":28,
			"componentType":5126,
			"count":1210,
			"max":[
				0.9228664636611938,
				0.2922876477241516,
				-0.09293991327285767
			],
			"min":[
				0.09242665767669678,
				0.04233817011117935,
				-1.907060146331787
			],
			"type":"VEC3"
		},
		{
			"bufferView":29,
			"componentType":5126,
			"count":1210,
			"type":"VEC3"
		},
		{
			"bufferView":30,
			"componentType":5123,
			"count":3570,
			"type":"SCALAR"
		},
		{
			"bufferView":31,
			"componentType":5126,
			"count":56,
			"max":[
				1,
				0.04999999701976776,
				0
			],
			"min":[
				0,
				0,
				-2
			],
			"type":"VEC3"
		},
		{
			"bufferView":32,
			"componentType":5126,
			"count":56,
			"type":"VEC3"
		},
		{
			"bufferView":33,
			"componentType":5123,
			"count":174,
			"type":"SCALAR"
		},
		{
			"bufferView":34,
			"componentType":5126,
			"count":160,
			"max":[
				0.9070600867271423,
				2.373483657836914,
				-0.09293991327285767
			],
			"min":[
				0.09293991327285767,
				0.043321818113327026,
				-0.9173581600189209
			],
			"type":"VEC3"
		},
		{
			"bufferView":35,
			"componentType":5126,
			"count":160,
			"type":"VEC3"
		},
		{
			"bufferView":36,
			"componentType":5123,
			"count":444,
			"type":"SCALAR"
		},
		{
			"bufferView":37,
			"componentType":5126,
			"count":48,
			"max":[
				1,
				0.04999999701976776,
				0
			],
			"min":[
				0,
				0,
				-1
			],
			"type":"VEC3"
		},
		{
			"bufferView":38,
			"componentType":5126,
			"count":48,
			"type":"VEC3"
		},
		{
			"bufferView":39,
			"componentType":5123,
			"count":132,
			"type":"SCALAR"
		},
		{
			"bufferView":40,
			"componentType":5126,
			"count":52,
			"max":[
				0.9070600867271423,
				0.40626227855682373,
				-0.09293991327285767
			],
			"min":[
				0.09293991327285767,
				0.043321818113327026,
				-0.9173581600189209
			],
			"type":"VEC3"
		},
		{
			"bufferView":41,
			"componentType":5126,
			"count":52,
			"type":"VEC3"
		},
		{
			"bufferView":42,
			"componentType":5126,
			"count":48,
			"max":[
				1,
				0.04999999701976776,
				0
			],
			"min":[
				0,
				0,
				-1
			],
			"type":"VEC3"
		},
		{
			"bufferView":43,
			"componentType":5126,
			"count":48,
			"type":"VEC3"
		},
		{
			"bufferView":44,
			"componentType":5126,
			"count":56,
			"max":[
				0.9070600867271423,
				0.7524358034133911,
				-0.09293991327285767
			],
			"min":[
				0.09293991327285767,
				0.04999999701976776,
				-1.907060146331787
			],
			"type":"VEC3"
		},
		{
			"bufferView":45,
			"componentType":5126,
			"count":56,
			"type":"VEC3"
		},
		{
			"bufferView":46,
			"componentType":5123,
			"count":168,
			"type":"SCALAR"
		},
		{
			"bufferView":47,
			"componentType":5126,
			"count":48,
			"max":[
				1,
				0.04999999701976776,
				0
			],
			"min":[
				0,
				0,
				-2
			],
			"type":"VEC3"
		},
		{
			"bufferView":48,
			"componentType":5126,
			"count":48,
			"type":"VEC3"
		},
		{
			"bufferView":49,
			"componentType":5123,
			"count":132,
			"type":"SCALAR"
		},
		{
			"bufferView":50,
			"componentType":5126,
			"count":202,
			"max":[
				0.9070600867271423,
				0.7353724241256714,
				-0.09293991327285767
			],
			"min":[
				0.09293991327285767,
				0.04999999701976776,
				-1.907060146331787
			],
			"type":"VEC3"
		},
		{
			"bufferView":51,
			"componentType":5126,
			"count":202,
			"type":"VEC3"
		},
		{
			"bufferView":52,
			"componentType":5123,
			"count":588,
			"type":"SCALAR"
		},
		{
			"bufferView":53,
			"componentType":5126,
			"count":48,
			"max":[
				1,
				0.04999999701976776,
				0
			],
			"min":[
				0,
				0,
				-2
			],
			"type":"VEC3"
		},
		{
			"bufferView":54,
			"componentType":5126,
			"count":48,
			"type":"VEC3"
		}
	],
	"bufferViews":[
		{
			"buffer":0,
			"byteLength":3744,
			"byteOffset":0,
			"target":34962
		},
		{
			"buffer":0,
			"byteLength":3744,
			"byteOffset":3744,
			"target":34962
		},
		{
			"buffer":0,
			"byteLength":1704,
			"byteOffset":7488,
			"target":34963
		},
		{
			"buffer":0,
			"byteLength":576,
			"byteOffset":9192,
			"target":34962
		},
		{
			"buffer":0,
			"byteLength":576,
			"byteOffset":9768,
			"target":34962
		},
		{
			"buffer":0,
			"byteLength":264,
			"byteOffset":10344,
			"target":34963
		},
		{
			"buffer":0,
			"byteLength":624,
			"byteOffset":10608,
			"target":34962
		},
		{
			"buffer":0,
			"byteLength":624,
			"byteOffset":11232,
			"target":34962
		},
		{
			"buffer":0,
			"byteLength":276,
			"byteOffset":11856,
			"target":34963
		},
		{
			"buffer":0,
			"byteLength":576,
			"byteOffset":12132,
			"target":34962
		},
		{
			"buffer":0,
			"byteLength":576,
			"byteOffset":12708,
			"target":34962
		},
		{
			"buffer":0,
			"byteLength":264,
			"byteOffset":13284,
			"target":34963
		},
		{
			"buffer":0,
			"byteLength":1056,
			"byteOffset":13548,
			"target":34962
		},
		{
			"buffer":0,
			"byteLength":1056,
			"byteOffset":14604,
			"target":34962
		},
		{
			"buffer":0,
			"byteLength":480,
			"byteOffset":15660,
			"target":34963
		},
		{
			"buffer":0,
			"byteLength":576,
			"byteOffset":16140,
			"target":34962
		},
		{
			"buffer":0,
			"byteLength":576,
			"byteOffset":16716,
			"target":34962
		},
		{
			"buffer":0,
			"byteLength":264,
			"byteOffset":17292,
			"target":34963
		},
		{
			"buffer":0,
			"byteLength":1056,
			"byteOffset":17556,
			"target":34962
		},
		{
			"buffer":0,
			"byteLength":1056,
			"byteOffset":18612,
			"target":34962
		},
		{
			"buffer":0,
			"byteLength":576,
			"byteOffset":19668,
			"target":34962
		},
		{
			"buffer":0,
			"byteLength":576,
			"byteOffset":20244,
			"target":34962
		},
		{
			"buffer":0,
			"byteLength":8568,
			"byteOffset":20820,
			"target":34962
		},
		{
			"buffer":0,
			"byteLength":8568,
			"byteOffset":29388,
			"target":34962
		},
		{
			"buffer":0,
			"byteLength":4548,
			"byteOffset":37956,
			"target":34963
		},
		{
			"buffer":0,
			"byteLength":672,
			"byteOffset":42504,
			"target":34962
		},
		{
			"buffer":0,
			"byteLength":672,
			"byteOffset":43176,
			"target":34962
		},
		{
			"buffer":0,
			"byteLength":348,
			"byteOffset":43848,
			"target":34963
		},
		{
			"buffer":0,
			"byteLength":14520,
			"byteOffset":44196,
			"target":34962
		},
		{
			"buffer":0,
			"byteLength":14520,
			"byteOffset":58716,
			"target":34962
		},
		{
			"buffer":0,
			"byteLength":7140,
			"byteOffset":73236,
			"target":34963
		},
		{
			"buffer":0,
			"byteLength":672,
			"byteOffset":80376,
			"target":34962
		},
		{
			"buffer":0,
			"byteLength":672,
			"byteOffset":81048,
			"target":34962
		},
		{
			"buffer":0,
			"byteLength":348,
			"byteOffset":81720,
			"target":34963
		},
		{
			"buffer":0,
			"byteLength":1920,
			"byteOffset":82068,
			"target":34962
		},
		{
			"buffer":0,
			"byteLength":1920,
			"byteOffset":83988,
			"target":34962
		},
		{
			"buffer":0,
			"byteLength":888,
			"byteOffset":85908,
			"target":34963
		},
		{
			"buffer":0,
			"byteLength":576,
			"byteOffset":86796,
			"target":34962
		},
		{
			"buffer":0,
			"byteLength":576,
			"byteOffset":87372,
			"target":34962
		},
		{
			"buffer":0,
			"byteLength":264,
			"byteOffset":87948,
			"target":34963
		},
		{
			"buffer":0,
			"byteLength":624,
			"byteOffset":88212,
			"target":34962
		},
		{
			"buffer":0,
			"byteLength":624,
			"byteOffset":88836,
			"target":34962
		},
		{
			"buffer":0,
			"byteLength":576,
			"byteOffset":89460,
			"target":34962
		},
		{
			"buffer":0,
			"byteLength":576,
			"byteOffset":90036,
			"target":34962
		},
		{
			"buffer":0,
			"byteLength":672,
			"byteOffset":90612,
			"target":34962
		},
		{
			"buffer":0,
			"byteLength":672,
			"byteOffset":91284,
			"target":34962
		},
		{
			"buffer":0,
			"byteLength":336,
			"byteOffset":91956,
			"target":34963
		},
		{
			"buffer":0,
			"byteLength":576,
			"byteOffset":92292,
			"target":34962
		},
		{
			"buffer":0,
			"byteLength":576,
			"byteOffset":92868,
			"target":34962
		},
		{
			"buffer":0,
			"byteLength":264,
			"byteOffset":93444,
			"target":34963
		},
		{
			"buffer":0,
			"byteLength":2424,
			"byteOffset":93708,
			"target":34962
		},
		{
			"buffer":0,
			"byteLength":2424,
			"byteOffset":96132,
			"target":34962
		},
		{
			"buffer":0,
			"byteLength":1176,
			"byteOffset":98556,
			"target":34963
		},
		{
			"buffer":0,
			"byteLength":576,
			"byteOffset":99732,
			"target":34962
		},
		{
			"buffer":0,
			"byteLength":576,
			"byteOffset":100308,
			"target":34962
		}
	],
	"buffers":[
		{
			"byteLength":100884,
			"uri":"data:application/octet-stream;base64,"
		}
	]
}
