{
	"asset":{
		"generator":"Khronos glTF Blender I/O v3.6.28",
		"version":"2.0"
	},
	"scene":0,
	"scenes":[
		{
			"name":"Scene",
			"nodes":[
				0,
				1,
				2,
				3,
				4,
				5,
				6
			]
		}
	],
	"nodes":[
		{
			"mesh":0,
			"name":"School_2x3",
			"translation":[
				1,
				0,
				-1.5
			]
		},
		{
			"mesh":1,
			"name":"GStore_1x1",
			"translation":[
				0.5,
				0,
				-0.5
			]
		},
		{
			"mesh":2,
			"name":"APlex_1x1",
			"translation":[
				0.5,
				0,
				-0.5
			]
		},
		{
			"mesh":3,
			"name":"ABloc_1x1",
			"translation":[
				0.5,
				0,
				-0.5
			]
		},
		{
			"mesh":4,
			"name":"Park_1x1",
			"translation":[
				0.5,
				0,
				-0.5
			]
		},
		{
			"mesh":5,
			"name":"Park_1x2",
			"translation":[
				0.5,
				0,
				-1
			]
		},
		{
			"mesh":6,
			"name":"Work_1x1",
			"translation":[
				0.5,
				0,
				-0.5
			]
		}
	],
	"materials":[
		{
			"doubleSided":true,
			"name":"School",
			"pbrMetallicRoughness":{
				"baseColorFactor":[
					0,
					0.2694823145866394,
					0.8000000715255737,
					1
				],
				"metallicFactor":0,
				"roughnessFactor":0.5
			}
		},
		{
			"doubleSided":true,
			"name":"Base",
			"pbrMetallicRoughness":{
				"baseColorFactor":[
					0.800000011920929,
					0.800000011920929,
					0.800000011920929,
					1
				],
				"metallicFactor":0,
				"roughnessFactor":0.5
			}
		},
		{
			"doubleSided":true,
			"name":"GStory",
			"pbrMetallicRoughness":{
				"baseColorFactor":[
					0.8000000715255737,
					0,
					0.749228835105896,
					1
				],
				"metallicFactor":0,
				"roughnessFactor":0.5
			}
		},
		{
			"doubleSided":true,
			"name":"App",
			"pbrMetallicRoughness":{
				"baseColorFactor":[
					0.22857153415679932,
					0.22857153415679932,
					0.22857153415679932,
					1
				],
				"metallicFactor":0,
				"roughnessFactor":0.5
			}
		},
		{
			"doubleSided":true,
			"name":"Park",
			"pbrMetallicRoughness":{
				"baseColorFactor":[
					0.020984593778848648,
					0.8000000715255737,
					0,
					1
				],
				"metallicFactor":0,
				"roughnessFactor":0.5
			}
		},
		{
			"doubleSided":true,
			"name":"Work",
			"pbrMetallicRoughness":{
				"baseColorFactor":[
					0.06372037529945374,
					0.06372037529945374,
					0.06372037529945374,
					1
				],
				"metallicFactor":0,
				"roughnessFactor":0.5
			}
		}
	],
	"meshes":[
		{
			"name":"School_2x3",
			"primitives":[
				{
					"attributes":{
						"POSITION":0,
						"NORMAL":1
					},
					"indices":2,
					"material":0
				},
				{
					"attributes":{
						"POSITION":3,
						"NORMAL":4
					},
					"indices":5,
					"material":1
				}
			]
		},
		{
			"name":"GStore_1x1",
			"primitives":[
				{
					"attributes":{
						"POSITION":6,
						"NORMAL":7
					},
					"indices":8,
					"material":2
				},
				{
					"attributes":{
						"POSITION":9,
						"NORMAL":10
					},
					"indices":11,
					"material":1
				}
			]
		},
		{
			"name":"APlex_1x1",
			"primitives":[
				{
					"attributes":{
						"POSITION":12,
						"NORMAL":13
					},
					"indices":14,
					"material":3
				},
				{
					"attributes":{
						"POSITION":15,
						"NORMAL":16
					},
					"indices":17,
					"material":1
				}
			]
		},
		{
			"name":"ABloc_1x1",
			"primitives":[
				{
					"attributes":{
						"POSITION":18,
						"NORMAL":19
					},
					"indices":14,
					"material":3
				},
				{
					"attributes":{
						"POSITION":20,
						"NORMAL":21
					},
					"indices":17,
					"material":1
				}
			]
		},
		{
			"name":"Park_1x1",
			"primitives":[
				{
					"attributes":{
						"POSITION":22,
						"NORMAL":23
					},
					"indices":24,
					"material":4
				},
				{
					"attributes":{
						"POSITION":25,
						"NORMAL":26
					},
					"indices":27,
					"material":1
				}
			]
		},
		{
			"name":"Park_1x2",
			"primitives":[
				{
					"attributes":{
						"POSITION":28,
						"NORMAL":29
					},
					"indices":30,
					"material":4
				},
				{
					"attributes":{
						"POSITION":31,
						"NORMAL":32
					},
					"indices":33,
					"material":1
				}
			]
		},
		{
			"name":"Work_1x1",
			"primitives":[
				{
					"attributes":{
						"POSITION":34,
						"NORMAL":35
					},
					"indices":36,
					"material":5
				},
				{
					"attributes":{
						"POSITION":37,
						"NORMAL":38
					},
					"indices":39,
					"material":1
				}
			]
		}
	],
	"accessors":[
		{
			"bufferView":0,
			"componentType":5126,
			"count":312,
			"max":[
				0.8130476474761963,
				1.2417963743209839,
				1.3130476474761963
			],
			"min":[
				-0.8130476474761963,
				0.043321818113327026,
				-1.3130476474761963
			],
			"type":"VEC3"
		},
		{
			"bufferView":1,
			"componentType":5126,
			"count":312,
			"type":"VEC3"
		},
		{
			"bufferView":2,
			"componentType":5123,
			"count":852,
			"type":"SCALAR"
		},
		{
			"bufferView":3,
			"componentType":5126,
			"count":48,
			"max":[
				1,
				0.04999999701976776,
				1.5
			],
			"min":[
				-1,
				0,
				-1.5
			],
			"type":"VEC3"
		},
		{
			"bufferView":4,
			"componentType":5126,
			"count":48,
			"type":"VEC3"
		},
		{
			"bufferView":5,
			"componentType":5123,
			"count":132,
			"type":"SCALAR"
		},
		{
			"bufferView":6,
			"componentType":5126,
			"count":52,
			"max":[
				0.40706008672714233,
				0.40626227855682373,
				0.40706008672714233
			],
			"min":[
				-0.40706008672714233,
				0.043321818113327026,
				-0.4173581600189209
			],
			"type":"VEC3"
		},
		{
			"bufferView":7,
			"componentType":5126,
			"count":52,
			"type":"VEC3"
		},
		{
			"bufferView":8,
			"componentType":5123,
			"count":138,
			"type":"SCALAR"
		},
		{
			"bufferView":9,
			"componentType":5126,
			"count":48,
			"max":[
				0.5,
				0.04999999701976776,
				0.5
			],
			"min":[
				-0.5,
				0,
				-0.5
			],
			"type":"VEC3"
		},
		{
			"bufferView":10,
			"componentType":5126,
			"count":48,
			"type":"VEC3"
		},
		{
			"bufferView":11,
			"componentType":5123,
			"count":132,
			"type":"SCALAR"
		},
		{
			"bufferView":12,
			"componentType":5126,
			"count":88,
			"max":[
				0.40706008672714233,
				0.4507540762424469,
				0.40706008672714233
			],
			"min":[
				-0.40706008672714233,
				0.043321818113327026,
				-0.4173581600189209
			],
			"type":"VEC3"
		},
		{
			"bufferView":13,
			"componentType":5126,
			"count":88,
			"type":"VEC3"
		},
		{
			"bufferView":14,
			"componentType":5123,
			"count":240,
			"type":"SCALAR"
		},
		{
			"bufferView":15,
			"componentType":5126,
			"count":48,
			"max":[
				0.5,
				0.04999999701976776,
				0.5
			],
			"min":[
				-0.5,
				0,
				-0.5
			],
			"type":"VEC3"
		},
		{
			"bufferView":16,
			"componentType":5126,
			"count":48,
			"type":"VEC3"
		},
		{
			"bufferView":17,
			"componentType":5123,
			"count":132,
			"type":"SCALAR"
		},
		{
			"bufferView":18,
			"componentType":5126,
			"count":88,
			"max":[
				0.40706008672714233,
				1.1821080446243286,
				0.40706008672714233
			],
			"min":[
				-0.40706008672714233,
				0.043321818113327026,
				-0.4173581600189209
			],
			"type":"VEC3"
		},
		{
			"bufferView":19,
			"componentType":5126,
			"count":88,
			"type":"VEC3"
		},
		{
			"bufferView":20,
			"componentType":5126,
			"count":48,
			"max":[
				0.5,
				0.04999999701976776,
				0.5
			],
			"min":[
				-0.5,
				0,
				-0.5
			],
			"type":"VEC3"
		},
		{
			"bufferView":21,
			"componentType":5126,
			"count":48,
			"type":"VEC3"
		},
		{
			"bufferView":22,
			"componentType":5126,
			"count":717,
			"max":[
				0.43553242087364197,
				0.2922876477241516,
				0.42802634835243225
			],
			"min":[
				-0.4318920075893402,
				0.04233817011117935,
				-0.4451964795589447
			],
			"type":"VEC3"
		},
		{
			"bufferView":23,
			"componentType":5126,
			"count":717,
			"type":"VEC3"
		},
		{
			"bufferView":24,
			"componentType":5123,
			"count":2274,
			"type":"SCALAR"
		},
		{
			"bufferView":25,
			"componentType":5126,
			"count":56,
			"max":[
				0.5,
				0.04999999701976776,
				0.5
			],
			"min":[
				-0.5,
				0,
				-0.5
			],
			"type":"VEC3"
		},
		{
			"bufferView":26,
			"componentType":5126,
			"count":56,
			"type":"VEC3"
		},
		{
			"bufferView":27,
			"componentType":5123,
			"count":174,
			"type":"SCALAR"
		},
		{
			"bufferView":28,
			"componentType":5126,
			"count":1202,
			"max":[
				0.42286643385887146,
				0.2922876477241516,
				0.9070600867271423
			],
			"min":[
				-0.4075733423233032,
				0.04233817011117935,
				-0.9070600867271423
			],
			"type":"VEC3"
		},
		{
			"bufferView":29,
			"componentType":5126,
			"count":1202,
			"type":"VEC3"
		},
		{
			"bufferView":30,
			"componentType":5123,
			"count":3570,
			"type":"SCALAR"
		},
		{
			"bufferView":31,
			"componentType":5126,
			"count":56,
			"max":[
				0.5,
				0.04999999701976776,
				1
			],
			"min":[
				-0.5,
				0,
				-1
			],
			"type":"VEC3"
		},
		{
			"bufferView":32,
			"componentType":5126,
			"count":56,
			"type":"VEC3"
		},
		{
			"bufferView":33,
			"componentType":5123,
			"count":174,
			"type":"SCALAR"
		},
		{
			"bufferView":34,
			"componentType":5126,
			"count":160,
			"max":[
				0.40706008672714233,
				2.373483657836914,
				0.40706008672714233
			],
			"min":[
				-0.40706008672714233,
				0.043321818113327026,
				-0.4173581600189209
			],
			"type":"VEC3"
		},
		{
			"bufferView":35,
			"componentType":5126,
			"count":160,
			"type":"VEC3"
		},
		{
			"bufferView":36,
			"componentType":5123,
			"count":444,
			"type":"SCALAR"
		},
		{
			"bufferView":37,
			"componentType":5126,
			"count":48,
			"max":[
				0.5,
				0.04999999701976776,
				0.5
			],
			"min":[
				-0.5,
				0,
				-0.5
			],
			"type":"VEC3"
		},
		{
			"bufferView":38,
			"componentType":5126,
			"count":48,
			"type":"VEC3"
		},
		{
			"bufferView":39,
			"componentType":5123,
			"count":132,
			"type":"SCALAR"
		}
	],
	"bufferViews":[
		{
			"buffer":0,
			"byteLength":3744,
			"byteOffset":0,
			"target":34962
		},
		{
			"buffer":0,
			"byteLength":3744,
			"byteOffset":3744,
			"target":34962
		},
		{
			"buffer":0,
			"byteLength":1704,
			"byteOffset":7488,
			"target":34963
		},
		{
			"buffer":0,
			"byteLength":576,
			"byteOffset":9192,
			"target":34962
		},
		{
			"buffer":0,
			"byteLength":576,
			"byteOffset":9768,
			"target":34962
		},
		{
			"buffer":0,
			"byteLength":264,
			"byteOffset":10344,
			"target":34963
		},
		{
			"buffer":0,
			"byteLength":624,
			"byteOffset":10608,
			"target":34962
		},
		{
			"buffer":0,
			"byteLength":624,
			"byteOffset":11232,
			"target":34962
		},
		{
			"buffer":0,
			"byteLength":276,
			"byteOffset":11856,
			"target":34963
		},
		{
			"buffer":0,
			"byteLength":576,
			"byteOffset":12132,
			"target":34962
		},
		{
			"buffer":0,
			"byteLength":576,
			"byteOffset":12708,
			"target":34962
		},
		{
			"buffer":0,
			"byteLength":264,
			"byteOffset":13284,
			"target":34963
		},
		{
			"buffer":0,
			"byteLength":1056,
			"byteOffset":13548,
			"target":34962
		},
		{
			"buffer":0,
			"byteLength":1056,
			"byteOffset":14604,
			"target":34962
		},
		{
			"buffer":0,
			"byteLength":480,
			"byteOffset":15660,
			"target":34963
		},
		{
			"buffer":0,
			"byteLength":576,
			"byteOffset":16140,
			"target":34962
		},
		{
			"buffer":0,
			"byteLength":576,
			"byteOffset":16716,
			"target":34962
		},
		{
			"buffer":0,
			"byteLength":264,
			"byteOffset":17292,
			"target":34963
		},
		{
			"buffer":0,
			"byteLength":1056,
			"byteOffset":17556,
			"target":34962
		},
		{
			"buffer":0,
			"byteLength":1056,
			"byteOffset":18612,
			"target":34962
		},
		{
			"buffer":0,
			"byteLength":576,
			"byteOffset":19668,
			"target":34962
		},
		{
			"buffer":0,
			"byteLength":576,
			"byteOffset":20244,
			"target":34962
		},
		{
			"buffer":0,
			"byteLength":8604,
			"byteOffset":20820,
			"target":34962
		},
		{
			"buffer":0,
			"byteLength":8604,
			"byteOffset":29424,
			"target":34962
		},
		{
			"buffer":0,
			"byteLength":4548,
			"byteOffset":38028,
			"target":34963
		},
		{
			"buffer":0,
			"byteLength":672,
			"byteOffset":42576,
			"target":34962
		},
		{
			"buffer":0,
			"byteLength":672,
			"byteOffset":43248,
			"target":34962
		},
		{
			"buffer":0,
			"byteLength":348,
			"byteOffset":43920,
			"target":34963
		},
		{
			"buffer":0,
			"byteLength":14424,
			"byteOffset":44268,
			"target":34962
		},
		{
			"buffer":0,
			"byteLength":14424,
			"byteOffset":58692,
			"target":34962
		},
		{
			"buffer":0,
			"byteLength":7140,
			"byteOffset":73116,
			"target":34963
		},
		{
			"buffer":0,
			"byteLength":672,
			"byteOffset":80256,
			"target":34962
		},
		{
			"buffer":0,
			"byteLength":672,
			"byteOffset":80928,
			"target":34962
		},
		{
			"buffer":0,
			"byteLength":348,
			"byteOffset":81600,
			"target":34963
		},
		{
			"buffer":0,
			"byteLength":1920,
			"byteOffset":81948,
			"target":34962
		},
		{
			"buffer":0,
			"byteLength":1920,
			"byteOffset":83868,
			"target":34962
		},
		{
			"buffer":0,
			"byteLength":888,
			"byteOffset":85788,
			"target":34963
		},
		{
			"buffer":0,
			"byteLength":576,
			"byteOffset":86676,
			"target":34962
		},
		{
			"buffer":0,
			"byteLength":576,
			"byteOffset":87252,
			"target":34962
		},
		{
			"buffer":0,
			"byteLength":264,
			"byteOffset":87828,
			"target":34963
		}
	],
	"buffers":[
		{
			"byteLength":88092,
			"uri":"data:application/octet-stream;base64,"
		}
	]
}
