{
	"asset":{
		"generator":"Khronos glTF Blender I/O v3.6.28",
		"version":"2.0"
	},
	"scene":0,
	"scenes":[
		{
			"name":"Scene",
			"nodes":[
				0,
				1,
				2,
				3,
				4,
				5,
				6,
				7,
				8,
				9,
				10,
				11
			]
		}
	],
	"nodes":[
		{
			"mesh":0,
			"name":"School_2x3"
		},
		{
			"mesh":1,
			"name":"GStore_1x1"
		},
		{
			"mesh":2,
			"name":"APlex_1x1"
		},
		{
			"mesh":3,
			"name":"ABloc_1x1"
		},
		{
			"mesh":4,
			"name":"Park_1x1"
		},
		{
			"mesh":5,
			"name":"Park_1x2"
		},
		{
			"mesh":6,
			"name":"Work_1x1"
		},
		{
			"mesh":7,
			"name":"BStore_1x1"
		},
		{
			"mesh":8,
			"name":"SCenter_1x2"
		},
		{
			"mesh":9,
			"name":"RStore_1x2"
		},
		{
			"mesh":10,
			"name":"SCenter_2x1"
		},
		{
			"mesh":11,
			"name":"RStore_2x1"
		}
	],
	"materials":[
		{
			"doubleSided":true,
			"name":"School",
			"pbrMetallicRoughness":{
				"baseColorFactor":[
					0,
					0.2694823145866394,
					0.8000000715255737,
					1
				],
				"metallicFactor":0,
				"roughnessFactor":0.5
			}
		},
		{
			"doubleSided":true,
			"name":"Base",
			"pbrMetallicRoughness":{
				"baseColorFactor":[
					0.800000011920929,
					0.800000011920929,
					0.800000011920929,
					1
				],
				"metallicFactor":0,
				"roughnessFactor":0.5
			}
		},
		{
			"doubleSided":true,
			"name":"GStore",
			"pbrMetallicRoughness":{
				"baseColorFactor":[
					0.21586008369922638,
					0,
					0.7991027235984802,
					1
				],
				"metallicFactor":0,
				"roughnessFactor":0.5
			}
		},
		{
			"doubleSided":true,
			"name":"App",
			"pbrMetallicRoughness":{
				"baseColorFactor":[
					0.22696562111377716,
					0.22696566581726074,
					0.22696588933467865,
					1
				],
				"metallicFactor":0,
				"roughnessFactor":0.5
			}
		},
		{
			"doubleSided":true,
			"name":"Park",
			"pbrMetallicRoughness":{
				"baseColorFactor":[
					0.02121839113533497,
					0.7991027235984802,
					0,
					1
				],
				"metallicFactor":0,
				"roughnessFactor":0.5
			}
		},
		{
			"doubleSided":true,
			"name":"Work",
			"pbrMetallicRoughness":{
				"baseColorFactor":[
					0.06372037529945374,
					0.06372037529945374,
					0.06372037529945374,
					1
				],
				"metallicFactor":0,
				"roughnessFactor":0.5
			}
		},
		{
			"doubleSided":true,
			"name":"BStore",
			"pbrMetallicRoughness":{
				"baseColorFactor":[
					0.7991030812263489,
					0,
					0.2015562504529953,
					1
				],
				"metallicFactor":0,
				"roughnessFactor":0.5
			}
		},
		{
			"doubleSided":true,
			"name":"SCenter",
			"pbrMetallicRoughness":{
				"baseColorFactor":[
					0.7991026639938354,
					0.6938714385032654,
					0,
					1
				],
				"metallicFactor":0,
				"roughnessFactor":0.5
			}
		},
		{
			"doubleSided":true,
			"name":"RStore",
			"pbrMetallicRoughness":{
				"baseColorFactor":[
					0.7991030812263489,
					0.1247715875506401,
					0,
					1
				],
				"metallicFactor":0,
				"roughnessFactor":0.5
			}
		}
	],
	"meshes":[
		{
			"name":"School_2x3",
			"primitives":[
				{
					"attributes":{
						"POSITION":0,
						"NORMAL":1
					},
					"indices":2,
					"material":0
				},
				{
					"attributes":{
						"POSITION":3,
						"NORMAL":4
					},
					"indices":5,
					"material":1
				}
			]
		},
		{
			"name":"GStore_1x1",
			"primitives":[
				{
					"attributes":{
						"POSITION":6,
						"NORMAL":7
					},
					"indices":8,
					"material":2
				},
				{
					"attributes":{
						"POSITION":9,
						"NORMAL":10
					},
					"indices":11,
					"material":1
				}
			]
		},
		{
			"name":"APlex_1x1",
			"primitives":[
				{
					"attributes":{
						"POSITION":12,
						"NORMAL":13
					},
					"indices":14,
					"material":3
				},
				{
					"attributes":{
						"POSITION":15,
						"NORMAL":16
					},
					"indices":17,
					"material":1
				}
			]
		},
		{
			"name":"ABloc_1x1",
			"primitives":[
				{
					"attributes":{
						"POSITION":18,
						"NORMAL":19
					},
					"indices":20,
					"material":3
				},
				{
					"attributes":{
						"POSITION":21,
						"NORMAL":22
					},
					"indices":23,
					"material":1
				}
			]
		},
		{
			"name":"Park_1x1",
			"primitives":[
				{
					"attributes":{
						"POSITION":24,
						"NORMAL":25
					},
					"indices":26,
					"material":4
				},
				{
					"attributes":{
						"POSITION":27,
						"NORMAL":28
					},
					"indices":29,
					"material":1
				}
			]
		},
		{
			"name":"Park_1x2",
			"primitives":[
				{
					"attributes":{
						"POSITION":30,
						"NORMAL":31
					},
					"indices":32,
					"material":4
				},
				{
					"attributes":{
						"POSITION":33,
						"NORMAL":34
					},
					"indices":35,
					"material":1
				}
			]
		},
		{
			"name":"Work_1x1",
			"primitives":[
				{
					"attributes":{
						"POSITION":36,
						"NORMAL":37
					},
					"indices":38,
					"material":5
				},
				{
					"attributes":{
						"POSITION":39,
						"NORMAL":40
					},
					"indices":41,
					"material":1
				}
			]
		},
		{
			"name":"GStore_1x1.001",
			"primitives":[
				{
					"attributes":{
						"POSITION":42,
						"NORMAL":43
					},
					"indices":44,
					"material":6
				},
				{
					"attributes":{
						"POSITION":45,
						"NORMAL":46
					},
					"indices":11,
					"material":1
				}
			]
		},
		{
			"name":"GStore_1x1.002",
			"primitives":[
				{
					"attributes":{
						"POSITION":47,
						"NORMAL":48
					},
					"indices":49,
					"material":7
				},
				{
					"attributes":{
						"POSITION":50,
						"NORMAL":51
					},
					"indices":52,
					"material":1
				}
			]
		},
		{
			"name":"GStore_1x1.003",
			"primitives":[
				{
					"attributes":{
						"POSITION":53,
						"NORMAL":54
					},
					"indices":55,
					"material":8
				},
				{
					"attributes":{
						"POSITION":56,
						"NORMAL":57
					},
					"indices":52,
					"material":1
				}
			]
		},
		{
			"name":"GStore_1x1.004",
			"primitives":[
				{
					"attributes":{
						"POSITION":58,
						"NORMAL":59
					},
					"indices":60,
					"material":7
				},
				{
					"attributes":{
						"POSITION":61,
						"NORMAL":62
					},
					"indices":63,
					"material":1
				}
			]
		},
		{
			"name":"GStore_1x1.005",
			"primitives":[
				{
					"attributes":{
						"POSITION":64,
						"NORMAL":65
					},
					"indices":66,
					"material":8
				},
				{
					"attributes":{
						"POSITION":67,
						"NORMAL":68
					},
					"indices":63,
					"material":1
				}
			]
		}
	],
	"accessors":[
		{
			"bufferView":0,
			"componentType":5126,
			"count":312,
			"max":[
				2.8130476474761963,
				1.2417963743209839,
				0.8130476474761963
			],
			"min":[
				0.1869523674249649,
				0.043321818113327026,
				-0.8130478858947754
			],
			"type":"VEC3"
		},
		{
			"bufferView":1,
			"componentType":5126,
			"count":312,
			"type":"VEC3"
		},
		{
			"bufferView":2,
			"componentType":5123,
			"count":852,
			"type":"SCALAR"
		},
		{
			"bufferView":3,
			"componentType":5126,
			"count":48,
			"max":[
				3.000000238418579,
				0.04999999701976776,
				1
			],
			"min":[
				3.774895063202166e-09,
				0,
				-1.000000238418579
			],
			"type":"VEC3"
		},
		{
			"bufferView":4,
			"componentType":5126,
			"count":48,
			"type":"VEC3"
		},
		{
			"bufferView":5,
			"componentType":5123,
			"count":132,
			"type":"SCALAR"
		},
		{
			"bufferView":6,
			"componentType":5126,
			"count":200,
			"max":[
				0.9070600867271423,
				0.47202804684638977,
				-0.09293991327285767
			],
			"min":[
				0.09293991327285767,
				0.04999999701976776,
				-0.9070600867271423
			],
			"type":"VEC3"
		},
		{
			"bufferView":7,
			"componentType":5126,
			"count":200,
			"type":"VEC3"
		},
		{
			"bufferView":8,
			"componentType":5123,
			"count":582,
			"type":"SCALAR"
		},
		{
			"bufferView":9,
			"componentType":5126,
			"count":48,
			"max":[
				1,
				0.04999999701976776,
				0
			],
			"min":[
				0,
				0,
				-1
			],
			"type":"VEC3"
		},
		{
			"bufferView":10,
			"componentType":5126,
			"count":48,
			"type":"VEC3"
		},
		{
			"bufferView":11,
			"componentType":5123,
			"count":132,
			"type":"SCALAR"
		},
		{
			"bufferView":12,
			"componentType":5126,
			"count":120,
			"max":[
				0.9070600867271423,
				0.5981359481811523,
				-0.09293991327285767
			],
			"min":[
				0.09293991327285767,
				0.04999999701976776,
				-0.9070600867271423
			],
			"type":"VEC3"
		},
		{
			"bufferView":13,
			"componentType":5126,
			"count":120,
			"type":"VEC3"
		},
		{
			"bufferView":14,
			"componentType":5123,
			"count":312,
			"type":"SCALAR"
		},
		{
			"bufferView":15,
			"componentType":5126,
			"count":48,
			"max":[
				1,
				0.04999999701976776,
				0
			],
			"min":[
				0,
				0,
				-1
			],
			"type":"VEC3"
		},
		{
			"bufferView":16,
			"componentType":5126,
			"count":48,
			"type":"VEC3"
		},
		{
			"bufferView":17,
			"componentType":5123,
			"count":132,
			"type":"SCALAR"
		},
		{
			"bufferView":18,
			"componentType":5126,
			"count":72,
			"max":[
				0.9070601463317871,
				1.1821080446243286,
				-0.09293992072343826
			],
			"min":[
				0.09293992072343826,
				0.04999999701976776,
				-0.9070601463317871
			],
			"type":"VEC3"
		},
		{
			"bufferView":19,
			"componentType":5126,
			"count":72,
			"type":"VEC3"
		},
		{
			"bufferView":20,
			"componentType":5123,
			"count":204,
			"type":"SCALAR"
		},
		{
			"bufferView":21,
			"componentType":5126,
			"count":48,
			"max":[
				1.0000001192092896,
				0.04999999701976776,
				-3.774895063202166e-09
			],
			"min":[
				2.9802322831784522e-09,
				0,
				-1.0000001192092896
			],
			"type":"VEC3"
		},
		{
			"bufferView":22,
			"componentType":5126,
			"count":48,
			"type":"VEC3"
		},
		{
			"bufferView":23,
			"componentType":5123,
			"count":132,
			"type":"SCALAR"
		},
		{
			"bufferView":24,
			"componentType":5126,
			"count":714,
			"max":[
				0.9355324506759644,
				0.2922876477241516,
				-0.07197365164756775
			],
			"min":[
				0.06810799241065979,
				0.04233817011117935,
				-0.9451965093612671
			],
			"type":"VEC3"
		},
		{
			"bufferView":25,
			"componentType":5126,
			"count":714,
			"type":"VEC3"
		},
		{
			"bufferView":26,
			"componentType":5123,
			"count":2274,
			"type":"SCALAR"
		},
		{
			"bufferView":27,
			"componentType":5126,
			"count":56,
			"max":[
				1,
				0.04999999701976776,
				0
			],
			"min":[
				0,
				0,
				-1
			],
			"type":"VEC3"
		},
		{
			"bufferView":28,
			"componentType":5126,
			"count":56,
			"type":"VEC3"
		},
		{
			"bufferView":29,
			"componentType":5123,
			"count":174,
			"type":"SCALAR"
		},
		{
			"bufferView":30,
			"componentType":5126,
			"count":1214,
			"max":[
				0.9228664636611938,
				0.2922876477241516,
				0.9070600867271423
			],
			"min":[
				0.09242665767669678,
				0.04233817011117935,
				-0.9070601463317871
			],
			"type":"VEC3"
		},
		{
			"bufferView":31,
			"componentType":5126,
			"count":1214,
			"type":"VEC3"
		},
		{
			"bufferView":32,
			"componentType":5123,
			"count":3570,
			"type":"SCALAR"
		},
		{
			"bufferView":33,
			"componentType":5126,
			"count":56,
			"max":[
				1,
				0.04999999701976776,
				1
			],
			"min":[
				0,
				0,
				-1
			],
			"type":"VEC3"
		},
		{
			"bufferView":34,
			"componentType":5126,
			"count":56,
			"type":"VEC3"
		},
		{
			"bufferView":35,
			"componentType":5123,
			"count":174,
			"type":"SCALAR"
		},
		{
			"bufferView":36,
			"componentType":5126,
			"count":160,
			"max":[
				0.9070600867271423,
				2.600768566131592,
				-0.09293991327285767
			],
			"min":[
				0.09293991327285767,
				0.043321818113327026,
				-0.9173581600189209
			],
			"type":"VEC3"
		},
		{
			"bufferView":37,
			"componentType":5126,
			"count":160,
			"type":"VEC3"
		},
		{
			"bufferView":38,
			"componentType":5123,
			"count":444,
			"type":"SCALAR"
		},
		{
			"bufferView":39,
			"componentType":5126,
			"count":48,
			"max":[
				1,
				0.04999999701976776,
				0
			],
			"min":[
				0,
				0,
				-1
			],
			"type":"VEC3"
		},
		{
			"bufferView":40,
			"componentType":5126,
			"count":48,
			"type":"VEC3"
		},
		{
			"bufferView":41,
			"componentType":5123,
			"count":132,
			"type":"SCALAR"
		},
		{
			"bufferView":42,
			"componentType":5126,
			"count":272,
			"max":[
				0.9070600867271423,
				0.46968770027160645,
				-0.09293991327285767
			],
			"min":[
				0.09293991327285767,
				0.04999999701976776,
				-0.9070600867271423
			],
			"type":"VEC3"
		},
		{
			"bufferView":43,
			"componentType":5126,
			"count":272,
			"type":"VEC3"
		},
		{
			"bufferView":44,
			"componentType":5123,
			"count":858,
			"type":"SCALAR"
		},
		{
			"bufferView":45,
			"componentType":5126,
			"count":48,
			"max":[
				1,
				0.04999999701976776,
				0
			],
			"min":[
				0,
				0,
				-1
			],
			"type":"VEC3"
		},
		{
			"bufferView":46,
			"componentType":5126,
			"count":48,
			"type":"VEC3"
		},
		{
			"bufferView":47,
			"componentType":5126,
			"count":115,
			"max":[
				0.9070600867271423,
				0.7524358034133911,
				0.9070600867271423
			],
			"min":[
				0.09293991327285767,
				0.036675892770290375,
				-0.9070601463317871
			],
			"type":"VEC3"
		},
		{
			"bufferView":48,
			"componentType":5126,
			"count":115,
			"type":"VEC3"
		},
		{
			"bufferView":49,
			"componentType":5123,
			"count":318,
			"type":"SCALAR"
		},
		{
			"bufferView":50,
			"componentType":5126,
			"count":48,
			"max":[
				1,
				0.04999999701976776,
				1
			],
			"min":[
				0,
				0,
				-1
			],
			"type":"VEC3"
		},
		{
			"bufferView":51,
			"componentType":5126,
			"count":48,
			"type":"VEC3"
		},
		{
			"bufferView":52,
			"componentType":5123,
			"count":132,
			"type":"SCALAR"
		},
		{
			"bufferView":53,
			"componentType":5126,
			"count":202,
			"max":[
				0.9070600867271423,
				0.7353724241256714,
				0.9070600867271423
			],
			"min":[
				0.09293991327285767,
				0.04999999701976776,
				-0.9070601463317871
			],
			"type":"VEC3"
		},
		{
			"bufferView":54,
			"componentType":5126,
			"count":202,
			"type":"VEC3"
		},
		{
			"bufferView":55,
			"componentType":5123,
			"count":588,
			"type":"SCALAR"
		},
		{
			"bufferView":56,
			"componentType":5126,
			"count":48,
			"max":[
				1,
				0.04999999701976776,
				1
			],
			"min":[
				0,
				0,
				-1
			],
			"type":"VEC3"
		},
		{
			"bufferView":57,
			"componentType":5126,
			"count":48,
			"type":"VEC3"
		},
		{
			"bufferView":58,
			"componentType":5126,
			"count":56,
			"max":[
				1.9070602655410767,
				0.7524358034133911,
				-0.09293991327285767
			],
			"min":[
				0.09293992072343826,
				0.04999999701976776,
				-0.9070602059364319
			],
			"type":"VEC3"
		},
		{
			"bufferView":59,
			"componentType":5126,
			"count":56,
			"type":"VEC3"
		},
		{
			"bufferView":60,
			"componentType":5123,
			"count":168,
			"type":"SCALAR"
		},
		{
			"bufferView":61,
			"componentType":5126,
			"count":48,
			"max":[
				2,
				0.04999999701976776,
				-4.470348535789981e-09
			],
			"min":[
				3.774895063202166e-09,
				0,
				-1.0000001192092896
			],
			"type":"VEC3"
		},
		{
			"bufferView":62,
			"componentType":5126,
			"count":48,
			"type":"VEC3"
		},
		{
			"bufferView":63,
			"componentType":5123,
			"count":132,
			"type":"SCALAR"
		},
		{
			"bufferView":64,
			"componentType":5126,
			"count":202,
			"max":[
				1.9070602655410767,
				0.7353724241256714,
				-0.09293992072343826
			],
			"min":[
				0.09293992072343826,
				0.04999999701976776,
				-0.9070602059364319
			],
			"type":"VEC3"
		},
		{
			"bufferView":65,
			"componentType":5126,
			"count":202,
			"type":"VEC3"
		},
		{
			"bufferView":66,
			"componentType":5123,
			"count":588,
			"type":"SCALAR"
		},
		{
			"bufferView":67,
			"componentType":5126,
			"count":48,
			"max":[
				2,
				0.04999999701976776,
				-4.470348535789981e-09
			],
			"min":[
				3.774895063202166e-09,
				0,
				-1.0000001192092896
			],
			"type":"VEC3"
		},
		{
			"bufferView":68,
			"componentType":5126,
			"count":48,
			"type":"VEC3"
		}
	],
	"bufferViews":[
		{
			"buffer":0,
			"byteLength":3744,
			"byteOffset":0,
			"target":34962
		},
		{
			"buffer":0,
			"byteLength":3744,
			"byteOffset":3744,
			"target":34962
		},
		{
			"buffer":0,
			"byteLength":1704,
			"byteOffset":7488,
			"target":34963
		},
		{
			"buffer":0,
			"byteLength":576,
			"byteOffset":9192,
			"target":34962
		},
		{
			"buffer":0,
			"byteLength":576,
			"byteOffset":9768,
			"target":34962
		},
		{
			"buffer":0,
			"byteLength":264,
			"byteOffset":10344,
			"target":34963
		},
		{
			"buffer":0,
			"byteLength":2400,
			"byteOffset":10608,
			"target":34962
		},
		{
			"buffer":0,
			"byteLength":2400,
			"byteOffset":13008,
			"target":34962
		},
		{
			"buffer":0,
			"byteLength":1164,
			"byteOffset":15408,
			"target":34963
		},
		{
			"buffer":0,
			"byteLength":576,
			"byteOffset":16572,
			"target":34962
		},
		{
			"buffer":0,
			"byteLength":576,
			"byteOffset":17148,
			"target":34962
		},
		{
			"buffer":0,
			"byteLength":264,
			"byteOffset":17724,
			"target":34963
		},
		{
			"buffer":0,
			"byteLength":1440,
			"byteOffset":17988,
			"target":34962
		},
		{
			"buffer":0,
			"byteLength":1440,
			"byteOffset":19428,
			"target":34962
		},
		{
			"buffer":0,
			"byteLength":624,
			"byteOffset":20868,
			"target":34963
		},
		{
			"buffer":0,
			"byteLength":576,
			"byteOffset":21492,
			"target":34962
		},
		{
			"buffer":0,
			"byteLength":576,
			"byteOffset":22068,
			"target":34962
		},
		{
			"buffer":0,
			"byteLength":264,
			"byteOffset":22644,
			"target":34963
		},
		{
			"buffer":0,
			"byteLength":864,
			"byteOffset":22908,
			"target":34962
		},
		{
			"buffer":0,
			"byteLength":864,
			"byteOffset":23772,
			"target":34962
		},
		{
			"buffer":0,
			"byteLength":408,
			"byteOffset":24636,
			"target":34963
		},
		{
			"buffer":0,
			"byteLength":576,
			"byteOffset":25044,
			"target":34962
		},
		{
			"buffer":0,
			"byteLength":576,
			"byteOffset":25620,
			"target":34962
		},
		{
			"buffer":0,
			"byteLength":264,
			"byteOffset":26196,
			"target":34963
		},
		{
			"buffer":0,
			"byteLength":8568,
			"byteOffset":26460,
			"target":34962
		},
		{
			"buffer":0,
			"byteLength":8568,
			"byteOffset":35028,
			"target":34962
		},
		{
			"buffer":0,
			"byteLength":4548,
			"byteOffset":43596,
			"target":34963
		},
		{
			"buffer":0,
			"byteLength":672,
			"byteOffset":48144,
			"target":34962
		},
		{
			"buffer":0,
			"byteLength":672,
			"byteOffset":48816,
			"target":34962
		},
		{
			"buffer":0,
			"byteLength":348,
			"byteOffset":49488,
			"target":34963
		},
		{
			"buffer":0,
			"byteLength":14568,
			"byteOffset":49836,
			"target":34962
		},
		{
			"buffer":0,
			"byteLength":14568,
			"byteOffset":64404,
			"target":34962
		},
		{
			"buffer":0,
			"byteLength":7140,
			"byteOffset":78972,
			"target":34963
		},
		{
			"buffer":0,
			"byteLength":672,
			"byteOffset":86112,
			"target":34962
		},
		{
			"buffer":0,
			"byteLength":672,
			"byteOffset":86784,
			"target":34962
		},
		{
			"buffer":0,
			"byteLength":348,
			"byteOffset":87456,
			"target":34963
		},
		{
			"buffer":0,
			"byteLength":1920,
			"byteOffset":87804,
			"target":34962
		},
		{
			"buffer":0,
			"byteLength":1920,
			"byteOffset":89724,
			"target":34962
		},
		{
			"buffer":0,
			"byteLength":888,
			"byteOffset":91644,
			"target":34963
		},
		{
			"buffer":0,
			"byteLength":576,
			"byteOffset":92532,
			"target":34962
		},
		{
			"buffer":0,
			"byteLength":576,
			"byteOffset":93108,
			"target":34962
		},
		{
			"buffer":0,
			"byteLength":264,
			"byteOffset":93684,
			"target":34963
		},
		{
			"buffer":0,
			"byteLength":3264,
			"byteOffset":93948,
			"target":34962
		},
		{
			"buffer":0,
			"byteLength":3264,
			"byteOffset":97212,
			"target":34962
		},
		{
			"buffer":0,
			"byteLength":1716,
			"byteOffset":100476,
			"target":34963
		},
		{
			"buffer":0,
			"byteLength":576,
			"byteOffset":102192,
			"target":34962
		},
		{
			"buffer":0,
			"byteLength":576,
			"byteOffset":102768,
			"target":34962
		},
		{
			"buffer":0,
			"byteLength":1380,
			"byteOffset":103344,
			"target":34962
		},
		{
			"buffer":0,
			"byteLength":1380,
			"byteOffset":104724,
			"target":34962
		},
		{
			"buffer":0,
			"byteLength":636,
			"byteOffset":106104,
			"target":34963
		},
		{
			"buffer":0,
			"byteLength":576,
			"byteOffset":106740,
			"target":34962
		},
		{
			"buffer":0,
			"byteLength":576,
			"byteOffset":107316,
			"target":34962
		},
		{
			"buffer":0,
			"byteLength":264,
			"byteOffset":107892,
			"target":34963
		},
		{
			"buffer":0,
			"byteLength":2424,
			"byteOffset":108156,
			"target":34962
		},
		{
			"buffer":0,
			"byteLength":2424,
			"byteOffset":110580,
			"target":34962
		},
		{
			"buffer":0,
			"byteLength":1176,
			"byteOffset":113004,
			"target":34963
		},
		{
			"buffer":0,
			"byteLength":576,
			"byteOffset":114180,
			"target":34962
		},
		{
			"buffer":0,
			"byteLength":576,
			"byteOffset":114756,
			"target":34962
		},
		{
			"buffer":0,
			"byteLength":672,
			"byteOffset":115332,
			"target":34962
		},
		{
			"buffer":0,
			"byteLength":672,
			"byteOffset":116004,
			"target":34962
		},
		{
			"buffer":0,
			"byteLength":336,
			"byteOffset":116676,
			"target":34963
		},
		{
			"buffer":0,
			"byteLength":576,
			"byteOffset":117012,
			"target":34962
		},
		{
			"buffer":0,
			"byteLength":576,
			"byteOffset":117588,
			"target":34962
		},
		{
			"buffer":0,
			"byteLength":264,
			"byteOffset":118164,
			"target":34963
		},
		{
			"buffer":0,
			"byteLength":2424,
			"byteOffset":118428,
			"target":34962
		},
		{
			"buffer":0,
			"byteLength":2424,
			"byteOffset":120852,
			"target":34962
		},
		{
			"buffer":0,
			"byteLength":1176,
			"byteOffset":123276,
			"target":34963
		},
		{
			"buffer":0,
			"byteLength":576,
			"byteOffset":124452,
			"target":34962
		},
		{
			"buffer":0,
			"byteLength":576,
			"byteOffset":125028,
			"target":34962
		}
	],
	"buffers":[
		{
			"byteLength":125604,
			"uri":"data:application/octet-stream;base64,"
		}
	]
}
