{
  "accessors": [
    {
      "bufferView": 0,
      "byteOffset": 0,
      "componentType": 5126,
      "normalized": false,
      "count": 44,
      "type": "VEC3",
      "max": [
        0.5,
        2.5,
        0.5
      ],
      "min": [
        -0.5,
        -0.5,
        -1.5
      ]
    },
    {
      "bufferView": 1,
      "byteOffset": 0,
      "componentType": 5126,
      "normalized": false,
      "count": 44,
      "type": "VEC3"
    },
    {
      "bufferView": 2,
      "byteOffset": 0,
      "componentType": 5126,
      "normalized": false,
      "count": 44,
      "type": "VEC2"
    },
    {
      "bufferView": 3,
      "byteOffset": 0,
      "componentType": 5123,
      "normalized": false,
      "count": 84,
      "type": "SCALAR"
    }
  ],
  "asset": {
    "generator": "pygltflib@v1.16.1",
    "version": "2.0"
  },
  "bufferViews": [
    {
      "buffer": 0,
      "byteOffset": 0,
      "byteLength": 528,
      "target": 34962
    },
    {
      "buffer": 0,
      "byteOffset": 528,
      "byteLength": 528,
      "target": 34962
    },
    {
      "buffer": 0,
      "byteOffset": 1056,
      "byteLength": 352,
      "target": 34962
    },
    {
      "buffer": 0,
      "byteOffset": 1408,
      "byteLength": 168,
      "target": 34963
    }
  ],
  "buffers": [
    {
      "uri": "Test_L_modif_data.bin",
      "byteLength": 1576
    }
  ],
  "meshes": [
    {
      "primitives": [
        {
          "attributes": {
            "POSITION": 0,
            "NORMAL": 1,
            "TEXCOORD_0": 2
          },
          "indices": 3,
          "mode": 4
        }
      ],
      "name": "Cube.001"
    }
  ],
  "nodes": [
    {
      "mesh": 0,
      "name": "Cube.002"
    },
    {
      "mesh": 0,
      "translation": [
        2,
        -2,
        0
      ],
      "name": "Cube.002"
    },
    {
      "mesh": 0,
      "translation": [
        2,
        0,
        0
      ],
      "name": "Cube.002"
    }
  ],
  "scene": 0,
  "scenes": [
    {
      "name": "Scene",
      "nodes": [
        0,
        1,
        2
      ]
    }
  ]
}